<?xml version="1.0" encoding="utf-8"?>
<!-- Generator: Adobe Illustrator 21.1.0, SVG Export Plug-In . SVG Version: 6.00 Build 0)  -->
<svg version="1.1" id="Warstwa_2" xmlns="http://www.w3.org/2000/svg" xmlns:xlink="http://www.w3.org/1999/xlink" x="0px" y="0px"
	 viewBox="0 0 83 22" style="enable-background:new 0 0 83 22;" xml:space="preserve">
<style type="text/css">
	.st0{clip-path:url(#SVGID_2_);fill:#79FFE1;}
	.st1{clip-path:url(#SVGID_2_);fill:#00EABD;}
	.st2{clip-path:url(#SVGID_2_);fill:#009B7D;}
	.st3{fill:#FFFFFF;}
	.st4{fill:#79FFE1;}
</style>
<g>
	<g>
		<defs>
			<path id="SVGID_1_" d="M45.8,3.2h-3.1c-0.1,0-0.2-0.1-0.2-0.2V1.2c0-0.4-0.2-0.6-0.6-0.6l-6.6,2.7c-0.1,0.1-0.1,0.2-0.1,0.4v2.7
				c0,0.4,0.2,0.6,0.6,0.6h1.8c0.1,0,0.2,0.1,0.2,0.2v9.1c0,1.8,0.5,3,1.5,3.6c0.9,0.6,2.4,1,4.3,1c0.4,0,1,0,1.9-0.1
				c0.4,0,0.6-0.3,0.6-0.6v-3c0-0.4-0.2-0.6-0.6-0.6h-1c-0.7,0-1.2-0.2-1.5-0.5c-0.3-0.4-0.5-0.9-0.5-1.7V7.3c0-0.1,0.1-0.2,0.2-0.2
				h3.1c0.4,0,0.6-0.2,0.6-0.6V3.8C46.4,3.4,46.2,3.2,45.8,3.2z"/>
		</defs>
		<clipPath id="SVGID_2_">
			<use xlink:href="#SVGID_1_"  style="overflow:visible;"/>
		</clipPath>
		<rect x="34.2" y="-0.8" class="st0" width="8.3" height="23.4"/>
		<rect x="42.4" y="1.5" class="st1" width="4.6" height="21.1"/>
		<polygon class="st2" points="45.3,22.6 42.4,22.6 42.4,1.5 44.3,1.5 		"/>
	</g>
	<g>
		<path class="st3" d="M13.3,10.7c0,0.1,0,0.1,0.1,0.1c1.7,0.9,2.6,2.4,2.6,4.5c0,1.9-0.7,3.3-2,4.3c-1.3,0.9-3.1,1.4-5.2,1.4H1.3
			c-0.2,0-0.3,0-0.4-0.1s-0.1-0.2-0.1-0.4V1.4c0-0.2,0-0.3,0.1-0.4s0.2-0.1,0.4-0.1h7.2c2.3,0,4.1,0.4,5.3,1.3
			c1.2,0.9,1.8,2.3,1.8,4.3c0,1.9-0.7,3.2-2.2,4C13.3,10.6,13.3,10.6,13.3,10.7z M5.5,5.2v3.5c0,0.1,0.1,0.2,0.2,0.2h2.8
			c0.8,0,1.4-0.2,1.8-0.5C10.7,8.1,11,7.6,11,7c0-0.6-0.2-1.1-0.6-1.5C9.9,5.2,9.3,5,8.5,5H5.7C5.6,5,5.5,5.1,5.5,5.2z M10.5,16.4
			c0.4-0.4,0.6-0.9,0.6-1.5c0-0.7-0.2-1.2-0.6-1.5c-0.4-0.4-1-0.5-1.8-0.5h-3c-0.1,0-0.2,0.1-0.2,0.2v3.7c0,0.1,0.1,0.2,0.2,0.2h3
			C9.5,16.9,10.1,16.8,10.5,16.4z"/>
		<path class="st3" d="M32.6,4.9C32.5,5,32.4,5,32.3,5h-8.8c-0.1,0-0.2,0.1-0.2,0.2v3.4c0,0.1,0.1,0.2,0.2,0.2H29
			c0.2,0,0.3,0,0.4,0.1c0.1,0.1,0.1,0.2,0.1,0.4v3c0,0.2,0,0.3-0.1,0.4c-0.1,0.1-0.2,0.1-0.4,0.1h-5.5c-0.1,0-0.2,0.1-0.2,0.2v3.7
			c0,0.1,0.1,0.2,0.2,0.2h8.8c0.2,0,0.3,0,0.4,0.1c0.1,0.1,0.1,0.2,0.1,0.4v3c0,0.2,0,0.3-0.1,0.4C32.5,21,32.4,21,32.3,21H19
			c-0.2,0-0.3,0-0.4-0.1s-0.1-0.2-0.1-0.4V1.4c0-0.2,0-0.3,0.1-0.4s0.2-0.1,0.4-0.1h13.2c0.2,0,0.3,0,0.4,0.1
			c0.1,0.1,0.1,0.2,0.1,0.4v3C32.8,4.6,32.7,4.8,32.6,4.9z"/>
		<path class="st3" d="M66.5,20.9c-0.1-0.1-0.1-0.2-0.1-0.4V1.4c0-0.2,0-0.3,0.1-0.4c0.1-0.1,0.2-0.1,0.4-0.1h3.5
			c0.3,0,0.5,0.1,0.6,0.3L77.3,12c0,0.1,0.1,0.1,0.1,0.1c0.1,0,0.1-0.1,0.1-0.2l0-10.4c0-0.2,0-0.3,0.1-0.4s0.2-0.1,0.4-0.1h3.7
			c0.2,0,0.3,0,0.4,0.1s0.1,0.2,0.1,0.4v19.1c0,0.2,0,0.3-0.1,0.4S81.9,21,81.7,21h-3.5c-0.2,0-0.5-0.1-0.6-0.3L71.3,9.9
			c0-0.1-0.1-0.1-0.2-0.1S71,9.8,71,9.9l0.1,10.6c0,0.2,0,0.3-0.1,0.4S70.7,21,70.6,21h-3.7C66.7,21,66.6,21,66.5,20.9z"/>
	</g>
	<path class="st4" d="M51.9,20.4c-1.2-0.6-2.1-1.5-2.7-2.6c-0.7-1.1-1-2.4-1-3.9V8.1c0-1.5,0.3-2.7,1-3.9c0.7-1.1,1.6-2,2.7-2.6
		C53.1,1,54.4,0.7,56,0.7c1.6,0,2.9,0.3,4.1,0.9c1.2,0.6,2.1,1.5,2.8,2.6c0.7,1.1,1,2.4,1,3.9v5.7c0,1.5-0.3,2.8-1,3.9
		c-0.7,1.1-1.6,2-2.8,2.6c-1.2,0.6-2.6,0.9-4.1,0.9C54.4,21.4,53.1,21.1,51.9,20.4z M58.2,16.4c0.6-0.6,0.8-1.4,0.8-2.4V8.1
		c0-1-0.3-1.8-0.8-2.4S56.9,4.8,56,4.8c-0.9,0-1.6,0.3-2.2,0.9c-0.6,0.6-0.8,1.4-0.8,2.4V14c0,1,0.3,1.8,0.8,2.4
		c0.6,0.6,1.3,0.9,2.2,0.9C56.9,17.3,57.6,17,58.2,16.4z"/>
</g>
</svg>
